<svg width="16" height="17" viewBox="0 0 16 17" fill="none" xmlns="http://www.w3.org/2000/svg">
<path d="M0 1.49562C0 0.862613 0.526 0.349609 1.175 0.349609H14.825C15.474 0.349609 16 0.862613 16 1.49562V15.2037C16 15.8367 15.474 16.3497 14.825 16.3497H1.175C0.526 16.3497 0 15.8367 0 15.2037V1.49562ZM4.943 13.7437V6.51866H2.542V13.7437H4.943ZM3.743 5.53165C4.58 5.53165 5.101 4.97764 5.101 4.28364C5.086 3.57463 4.581 3.03563 3.759 3.03563C2.937 3.03563 2.4 3.57563 2.4 4.28364C2.4 4.97764 2.921 5.53165 3.727 5.53165H3.743ZM8.651 13.7437V9.70868C8.651 9.49268 8.667 9.27668 8.731 9.12268C8.904 8.69167 9.299 8.24467 9.963 8.24467C10.832 8.24467 11.179 8.90668 11.179 9.87868V13.7437H13.58V9.59968C13.58 7.37966 12.396 6.34766 10.816 6.34766C9.542 6.34766 8.971 7.04766 8.651 7.54066V7.56566H8.635C8.64031 7.55732 8.64564 7.54898 8.651 7.54066V6.51866H6.251C6.281 7.19666 6.251 13.7437 6.251 13.7437H8.651Z" fill="#3917DB"/>
</svg>
