<svg width="353" height="61" viewBox="0 0 353 61" fill="none" xmlns="http://www.w3.org/2000/svg">
<path d="M280.718 48.4958C280.224 48.4958 279.808 48.3274 279.472 47.9906C279.157 47.6538 279 47.2384 279 46.7444C279 46.2504 279.157 45.8463 279.472 45.5319C279.808 45.1951 280.224 45.0267 280.718 45.0267C281.189 45.0267 281.582 45.1951 281.896 45.5319C282.233 45.8463 282.402 46.2504 282.402 46.7444C282.402 47.2384 282.233 47.6538 281.896 47.9906C281.582 48.3274 281.189 48.4958 280.718 48.4958Z" fill="#D1D1E9"/>
<path d="M287.61 26.469C287.138 26.469 286.734 26.3006 286.397 25.9638C286.061 25.627 285.892 25.2117 285.892 24.7177C285.892 24.2237 286.061 23.8195 286.397 23.5052C286.734 23.1684 287.138 23 287.61 23C288.081 23 288.486 23.1684 288.822 23.5052C289.159 23.8195 289.328 24.2237 289.328 24.7177C289.328 25.2117 289.159 25.627 288.822 25.9638C288.486 26.3006 288.081 26.469 287.61 26.469ZM288.789 29.9381V48.3274H286.431V29.9381H288.789Z" fill="#D1D1E9"/>
<path d="M302.177 48.5968C300.448 48.5968 298.888 48.2151 297.496 47.4517C296.126 46.6658 295.037 45.5656 294.229 44.151C293.443 42.714 293.05 41.0413 293.05 39.1327C293.05 37.2242 293.454 35.5626 294.262 34.1481C295.071 32.7111 296.171 31.6109 297.563 30.8474C298.955 30.0616 300.516 29.6686 302.244 29.6686C303.973 29.6686 305.534 30.0616 306.926 30.8474C308.341 31.6109 309.441 32.7111 310.227 34.1481C311.035 35.5626 311.439 37.2242 311.439 39.1327C311.439 41.0188 311.035 42.6803 310.227 44.1174C309.418 45.5544 308.307 46.6658 306.892 47.4517C305.478 48.2151 303.906 48.5968 302.177 48.5968ZM302.177 46.5423C303.39 46.5423 304.512 46.2729 305.545 45.734C306.578 45.1727 307.409 44.3419 308.037 43.2417C308.689 42.119 309.014 40.7494 309.014 39.1327C309.014 37.5161 308.7 36.1577 308.071 35.0574C307.442 33.9348 306.612 33.104 305.579 32.5651C304.546 32.0038 303.423 31.7231 302.211 31.7231C300.998 31.7231 299.876 32.0038 298.843 32.5651C297.81 33.104 296.979 33.9348 296.35 35.0574C295.744 36.1577 295.441 37.5161 295.441 39.1327C295.441 40.7494 295.744 42.119 296.35 43.2417C296.979 44.3419 297.799 45.1727 298.809 45.734C299.842 46.2729 300.965 46.5423 302.177 46.5423Z" fill="#D1D1E9"/>
<path d="M83.9544 29.7464L78.4982 48.4051H73.4126L70.0109 35.371L66.6092 48.4051H61.4898L56 29.7464H60.7826L64.0832 43.9594L67.6533 29.7464H72.6379L76.1406 43.9257L79.4413 29.7464H83.9544Z" fill="#3917DB"/>
<path d="M103.851 38.6716C103.851 39.3452 103.806 39.9514 103.716 40.4903H90.0757C90.188 41.8375 90.6595 42.8928 91.4903 43.6562C92.3211 44.4197 93.3427 44.8014 94.5552 44.8014C96.3065 44.8014 97.5527 44.0492 98.2937 42.5448H103.379C102.84 44.3411 101.808 45.823 100.281 46.9906C98.754 48.1357 96.8791 48.7082 94.6562 48.7082C92.86 48.7082 91.2433 48.3153 89.8063 47.5294C88.3917 46.7211 87.2803 45.5872 86.472 44.1278C85.6861 42.6683 85.2932 40.9843 85.2932 39.0758C85.2932 37.1448 85.6861 35.4496 86.472 33.9901C87.2578 32.5306 88.3581 31.4079 89.7726 30.6221C91.1872 29.8362 92.815 29.4433 94.6562 29.4433C96.43 29.4433 98.013 29.825 99.4051 30.5884C100.82 31.3518 101.909 32.4408 102.672 33.8554C103.458 35.2475 103.851 36.8529 103.851 38.6716ZM98.9673 37.3244C98.9448 36.1119 98.507 35.1464 97.6537 34.4279C96.8005 33.687 95.7564 33.3165 94.5215 33.3165C93.3539 33.3165 92.366 33.6757 91.5577 34.3942C90.7718 35.0903 90.289 36.067 90.1094 37.3244H98.9673Z" fill="#3917DB"/>
<path d="M112.008 32.4745C112.614 31.5763 113.445 30.8466 114.5 30.2853C115.578 29.7239 116.802 29.4433 118.171 29.4433C119.765 29.4433 121.202 29.8362 122.482 30.6221C123.785 31.4079 124.806 32.5306 125.547 33.9901C126.311 35.4271 126.692 37.0999 126.692 39.0084C126.692 40.9169 126.311 42.6122 125.547 44.0941C124.806 45.5536 123.785 46.6874 122.482 47.4958C121.202 48.3041 119.765 48.7082 118.171 48.7082C116.779 48.7082 115.555 48.4388 114.5 47.8999C113.467 47.3386 112.636 46.6201 112.008 45.7444V48.4051H107.293V23.4819H112.008V32.4745ZM121.876 39.0084C121.876 37.8857 121.64 36.9202 121.169 36.1119C120.72 35.2811 120.113 34.6525 119.35 34.2258C118.609 33.7992 117.801 33.5859 116.925 33.5859C116.072 33.5859 115.263 33.8105 114.5 34.2595C113.759 34.6861 113.153 35.3148 112.681 36.1456C112.232 36.9764 112.008 37.9531 112.008 39.0758C112.008 40.1984 112.232 41.1752 112.681 42.0059C113.153 42.8367 113.759 43.4766 114.5 43.9257C115.263 44.3523 116.072 44.5656 116.925 44.5656C117.801 44.5656 118.609 44.3411 119.35 43.892C120.113 43.4429 120.72 42.803 121.169 41.9722C121.64 41.1415 121.876 40.1535 121.876 39.0084Z" fill="#3917DB"/>
<path d="M137.259 48.7082C135.732 48.7082 134.362 48.4388 133.15 47.8999C131.937 47.3386 130.972 46.5864 130.253 45.6434C129.557 44.7003 129.176 43.6562 129.108 42.5111H133.857C133.947 43.2296 134.295 43.8246 134.901 44.2962C135.53 44.7677 136.305 45.0034 137.225 45.0034C138.123 45.0034 138.819 44.8238 139.313 44.4646C139.83 44.1053 140.088 43.645 140.088 43.0837C140.088 42.4774 139.774 42.0284 139.145 41.7365C138.539 41.4221 137.562 41.0853 136.215 40.7261C134.823 40.3893 133.677 40.0413 132.779 39.682C131.904 39.3228 131.14 38.7726 130.489 38.0317C129.86 37.2907 129.546 36.2916 129.546 35.0342C129.546 34.0013 129.838 33.0583 130.422 32.205C131.028 31.3518 131.881 30.6782 132.981 30.1842C134.104 29.6903 135.418 29.4433 136.922 29.4433C139.145 29.4433 140.919 30.0046 142.243 31.1273C143.568 32.2275 144.298 33.7206 144.433 35.6067H139.92C139.852 34.8658 139.538 34.282 138.976 33.8554C138.438 33.4063 137.708 33.1818 136.787 33.1818C135.934 33.1818 135.272 33.3389 134.8 33.6533C134.351 33.9676 134.127 34.4055 134.127 34.9668C134.127 35.5955 134.441 36.0782 135.07 36.415C135.698 36.7294 136.675 37.055 138 37.3918C139.347 37.7286 140.458 38.0766 141.334 38.4358C142.21 38.7951 142.962 39.3564 143.591 40.1198C144.242 40.8608 144.579 41.8488 144.601 43.0837C144.601 44.1614 144.298 45.1269 143.692 45.9802C143.108 46.8334 142.255 47.507 141.132 48.001C140.032 48.4725 138.741 48.7082 137.259 48.7082Z" fill="#3917DB"/>
<path d="M158.811 29.477C161.034 29.477 162.83 30.1842 164.2 31.5988C165.57 32.9909 166.255 34.9443 166.255 37.4591V48.4051H161.539V38.099C161.539 36.6171 161.169 35.4832 160.428 34.6974C159.687 33.889 158.677 33.4849 157.397 33.4849C156.095 33.4849 155.062 33.889 154.298 34.6974C153.557 35.4832 153.187 36.6171 153.187 38.099V48.4051H148.472V29.7464H153.187V32.0703C153.815 31.262 154.613 30.6333 155.578 30.1842C156.566 29.7127 157.644 29.477 158.811 29.477Z" fill="#3917DB"/>
<path d="M173.13 27.5235C172.299 27.5235 171.603 27.2653 171.042 26.7489C170.503 26.21 170.233 25.5476 170.233 24.7618C170.233 23.9759 170.503 23.3247 171.042 22.8083C171.603 22.2694 172.299 22 173.13 22C173.961 22 174.645 22.2694 175.184 22.8083C175.746 23.3247 176.026 23.9759 176.026 24.7618C176.026 25.5476 175.746 26.21 175.184 26.7489C174.645 27.2653 173.961 27.5235 173.13 27.5235ZM175.454 29.7464V48.4051H170.739V29.7464H175.454Z" fill="#3917DB"/>
<path d="M184.828 32.4408C185.434 31.5876 186.265 30.8803 187.32 30.319C188.398 29.7352 189.621 29.4433 190.991 29.4433C192.585 29.4433 194.022 29.8362 195.302 30.6221C196.604 31.4079 197.626 32.5306 198.367 33.9901C199.13 35.4271 199.512 37.0999 199.512 39.0084C199.512 40.9169 199.13 42.6122 198.367 44.0941C197.626 45.5536 196.604 46.6874 195.302 47.4958C194.022 48.3041 192.585 48.7082 190.991 48.7082C189.621 48.7082 188.409 48.4276 187.354 47.8662C186.321 47.3049 185.479 46.5976 184.828 45.7444V57.2966H180.112V29.7464H184.828V32.4408ZM194.696 39.0084C194.696 37.8857 194.46 36.9202 193.989 36.1119C193.539 35.2811 192.933 34.6525 192.17 34.2258C191.429 33.7992 190.621 33.5859 189.745 33.5859C188.892 33.5859 188.083 33.8105 187.32 34.2595C186.579 34.6861 185.973 35.3148 185.501 36.1456C185.052 36.9764 184.828 37.9531 184.828 39.0758C184.828 40.1984 185.052 41.1752 185.501 42.0059C185.973 42.8367 186.579 43.4766 187.32 43.9257C188.083 44.3523 188.892 44.5656 189.745 44.5656C190.621 44.5656 191.429 44.3411 192.17 43.892C192.933 43.4429 193.539 42.803 193.989 41.9722C194.46 41.1415 194.696 40.1535 194.696 39.0084Z" fill="#3917DB"/>
<path d="M207.654 32.4408C208.26 31.5876 209.091 30.8803 210.146 30.319C211.224 29.7352 212.447 29.4433 213.817 29.4433C215.411 29.4433 216.848 29.8362 218.128 30.6221C219.43 31.4079 220.452 32.5306 221.193 33.9901C221.956 35.4271 222.338 37.0999 222.338 39.0084C222.338 40.9169 221.956 42.6122 221.193 44.0941C220.452 45.5536 219.43 46.6874 218.128 47.4958C216.848 48.3041 215.411 48.7082 213.817 48.7082C212.447 48.7082 211.235 48.4276 210.18 47.8662C209.147 47.3049 208.305 46.5976 207.654 45.7444V57.2966H202.938V29.7464H207.654V32.4408ZM217.522 39.0084C217.522 37.8857 217.286 36.9202 216.815 36.1119C216.366 35.2811 215.759 34.6525 214.996 34.2258C214.255 33.7992 213.447 33.5859 212.571 33.5859C211.718 33.5859 210.909 33.8105 210.146 34.2595C209.405 34.6861 208.799 35.3148 208.327 36.1456C207.878 36.9764 207.654 37.9531 207.654 39.0758C207.654 40.1984 207.878 41.1752 208.327 42.0059C208.799 42.8367 209.405 43.4766 210.146 43.9257C210.909 44.3523 211.718 44.5656 212.571 44.5656C213.447 44.5656 214.255 44.3411 214.996 43.892C215.759 43.4429 216.366 42.803 216.815 41.9722C217.286 41.1415 217.522 40.1535 217.522 39.0084Z" fill="#3917DB"/>
<path d="M243.11 38.6716C243.11 39.3452 243.065 39.9514 242.975 40.4903H229.335C229.447 41.8375 229.918 42.8928 230.749 43.6562C231.58 44.4197 232.602 44.8014 233.814 44.8014C235.565 44.8014 236.812 44.0492 237.553 42.5448H242.638C242.099 44.3411 241.066 45.823 239.54 46.9906C238.013 48.1357 236.138 48.7082 233.915 48.7082C232.119 48.7082 230.502 48.3153 229.065 47.5294C227.651 46.7211 226.539 45.5872 225.731 44.1278C224.945 42.6683 224.552 40.9843 224.552 39.0758C224.552 37.1448 224.945 35.4496 225.731 33.9901C226.517 32.5306 227.617 31.4079 229.032 30.6221C230.446 29.8362 232.074 29.4433 233.915 29.4433C235.689 29.4433 237.272 29.825 238.664 30.5884C240.079 31.3518 241.168 32.4408 241.931 33.8554C242.717 35.2475 243.11 36.8529 243.11 38.6716ZM238.226 37.3244C238.204 36.1119 237.766 35.1464 236.913 34.4279C236.059 33.687 235.015 33.3165 233.78 33.3165C232.613 33.3165 231.625 33.6757 230.817 34.3942C230.031 35.0903 229.548 36.067 229.368 37.3244H238.226Z" fill="#3917DB"/>
<path d="M252.041 33.6196V42.6458C252.041 43.2745 252.187 43.7348 252.479 44.0267C252.793 44.2962 253.31 44.4309 254.028 44.4309H256.218V48.4051H253.254C249.28 48.4051 247.292 46.4741 247.292 42.6122V33.6196H245.07V29.7464H247.292V25.1322H252.041V29.7464H256.218V33.6196H252.041Z" fill="#3917DB"/>
<path d="M266.749 48.7082C265.222 48.7082 263.853 48.4388 262.64 47.8999C261.428 47.3386 260.462 46.5864 259.744 45.6434C259.048 44.7003 258.666 43.6562 258.599 42.5111H263.348C263.437 43.2296 263.785 43.8246 264.392 44.2962C265.02 44.7677 265.795 45.0034 266.715 45.0034C267.614 45.0034 268.31 44.8238 268.804 44.4646C269.32 44.1053 269.578 43.645 269.578 43.0837C269.578 42.4774 269.264 42.0284 268.635 41.7365C268.029 41.4221 267.052 41.0853 265.705 40.7261C264.313 40.3893 263.168 40.0413 262.27 39.682C261.394 39.3228 260.631 38.7726 259.979 38.0317C259.351 37.2907 259.036 36.2916 259.036 35.0342C259.036 34.0013 259.328 33.0583 259.912 32.205C260.518 31.3518 261.372 30.6782 262.472 30.1842C263.594 29.6903 264.908 29.4433 266.412 29.4433C268.635 29.4433 270.409 30.0046 271.734 31.1273C273.059 32.2275 273.788 33.7206 273.923 35.6067H269.41C269.343 34.8658 269.028 34.282 268.467 33.8554C267.928 33.4063 267.198 33.1818 266.278 33.1818C265.424 33.1818 264.762 33.3389 264.291 33.6533C263.841 33.9676 263.617 34.4055 263.617 34.9668C263.617 35.5955 263.931 36.0782 264.56 36.415C265.189 36.7294 266.165 37.055 267.49 37.3918C268.837 37.7286 269.949 38.0766 270.824 38.4358C271.7 38.7951 272.452 39.3564 273.081 40.1198C273.732 40.8608 274.069 41.8488 274.091 43.0837C274.091 44.1614 273.788 45.1269 273.182 45.9802C272.598 46.8334 271.745 47.507 270.622 48.001C269.522 48.4725 268.231 48.7082 266.749 48.7082Z" fill="#3917DB"/>
<g filter="url(#filter0_d)">
<path fill-rule="evenodd" clip-rule="evenodd" d="M6.57234 38.0744L16.878 28.5615L14.3668 25.8411L2 37.2565L2.75498 38.0744L2 38.8923L14.3668 50.3078L16.878 47.5873L6.57234 38.0744Z" fill="#3917DB"/>
</g>
<g filter="url(#filter1_d)">
<path fill-rule="evenodd" clip-rule="evenodd" d="M46.2094 38.0744L35.9038 28.5615L38.415 25.8411L50.7818 37.2565L50.0268 38.0744L50.7818 38.8923L38.415 50.3078L35.9038 47.5873L46.2094 38.0744Z" fill="#3917DB"/>
</g>
<g filter="url(#filter2_d)">
<line x1="19.8933" y1="53.6177" x2="32.2601" y2="19.3713" stroke="#E45858" stroke-width="3.70232"/>
</g>
<path d="M321.524 31.6274H318.623L318.159 33H316.177L318.989 25.2293H321.18L323.992 33H321.989L321.524 31.6274ZM321.037 30.1663L320.074 27.3214L319.122 30.1663H321.037ZM326.741 31.5389H329.22V33H324.848V25.2293H326.741V31.5389ZM336.045 27.731C336.045 28.1812 335.942 28.5944 335.735 28.9708C335.528 29.3397 335.211 29.6386 334.783 29.8674C334.355 30.0961 333.824 30.2105 333.189 30.2105H332.016V33H330.123V25.2293H333.189C333.809 25.2293 334.333 25.3363 334.761 25.5503C335.189 25.7644 335.51 26.0595 335.724 26.4359C335.938 26.8123 336.045 27.244 336.045 27.731ZM333.045 28.7051C333.407 28.7051 333.676 28.6202 333.853 28.4505C334.03 28.2808 334.119 28.0409 334.119 27.731C334.119 27.4211 334.03 27.1812 333.853 27.0115C333.676 26.8418 333.407 26.7569 333.045 26.7569H332.016V28.7051H333.045ZM343.761 25.2293V33H341.868V29.801H338.923V33H337.03V25.2293H338.923V28.2734H341.868V25.2293H343.761ZM349.964 31.6274H347.064L346.599 33H344.618L347.43 25.2293H349.621L352.433 33H350.429L349.964 31.6274ZM349.477 30.1663L348.514 27.3214L347.562 30.1663H349.477Z" fill="#2B2C34"/>
<defs>
<filter id="filter0_d" x="0.765895" y="25.8411" width="16.1121" height="28.169" filterUnits="userSpaceOnUse" color-interpolation-filters="sRGB">
<feFlood flood-opacity="0" result="BackgroundImageFix"/>
<feColorMatrix in="SourceAlpha" type="matrix" values="0 0 0 0 0 0 0 0 0 0 0 0 0 0 0 0 0 0 127 0"/>
<feOffset dx="-1.23411" dy="3.70232"/>
<feColorMatrix type="matrix" values="0 0 0 0 0.819608 0 0 0 0 0.819608 0 0 0 0 0.913725 0 0 0 1 0"/>
<feBlend mode="normal" in2="BackgroundImageFix" result="effect1_dropShadow"/>
<feBlend mode="normal" in="SourceGraphic" in2="effect1_dropShadow" result="shape"/>
</filter>
<filter id="filter1_d" x="34.6697" y="25.8411" width="16.1121" height="28.169" filterUnits="userSpaceOnUse" color-interpolation-filters="sRGB">
<feFlood flood-opacity="0" result="BackgroundImageFix"/>
<feColorMatrix in="SourceAlpha" type="matrix" values="0 0 0 0 0 0 0 0 0 0 0 0 0 0 0 0 0 0 127 0"/>
<feOffset dx="-1.23411" dy="3.70232"/>
<feColorMatrix type="matrix" values="0 0 0 0 0.819608 0 0 0 0 0.819608 0 0 0 0 0.913725 0 0 0 1 0"/>
<feBlend mode="normal" in2="BackgroundImageFix" result="effect1_dropShadow"/>
<feBlend mode="normal" in="SourceGraphic" in2="effect1_dropShadow" result="shape"/>
</filter>
<filter id="filter2_d" x="18.1522" y="18.7426" width="17.0831" height="40.4403" filterUnits="userSpaceOnUse" color-interpolation-filters="sRGB">
<feFlood flood-opacity="0" result="BackgroundImageFix"/>
<feColorMatrix in="SourceAlpha" type="matrix" values="0 0 0 0 0 0 0 0 0 0 0 0 0 0 0 0 0 0 127 0"/>
<feOffset dx="1.23411" dy="4.93642"/>
<feColorMatrix type="matrix" values="0 0 0 0 0.819608 0 0 0 0 0.819608 0 0 0 0 0.913725 0 0 0 1 0"/>
<feBlend mode="normal" in2="BackgroundImageFix" result="effect1_dropShadow"/>
<feBlend mode="normal" in="SourceGraphic" in2="effect1_dropShadow" result="shape"/>
</filter>
</defs>
</svg>
