<svg width="354" height="42" viewBox="0 0 354 42" fill="none" xmlns="http://www.w3.org/2000/svg">
<path d="M280.718 30.4958C280.224 30.4958 279.808 30.3274 279.472 29.9906C279.157 29.6538 279 29.2384 279 28.7444C279 28.2504 279.157 27.8463 279.472 27.5319C279.808 27.1951 280.224 27.0267 280.718 27.0267C281.189 27.0267 281.582 27.1951 281.896 27.5319C282.233 27.8463 282.402 28.2504 282.402 28.7444C282.402 29.2384 282.233 29.6538 281.896 29.9906C281.582 30.3274 281.189 30.4958 280.718 30.4958Z" fill="#D1D1E9"/>
<path d="M287.61 8.46904C287.138 8.46904 286.734 8.30064 286.397 7.96384C286.061 7.62704 285.892 7.21165 285.892 6.71768C285.892 6.22371 286.061 5.81955 286.397 5.5052C286.734 5.1684 287.138 5 287.61 5C288.082 5 288.486 5.1684 288.822 5.5052C289.159 5.81955 289.328 6.22371 289.328 6.71768C289.328 7.21165 289.159 7.62704 288.822 7.96384C288.486 8.30064 288.082 8.46904 287.61 8.46904ZM288.789 11.9381V30.3274H286.431V11.9381H288.789Z" fill="#D1D1E9"/>
<path d="M302.177 30.5968C300.448 30.5968 298.888 30.2151 297.496 29.4517C296.126 28.6658 295.037 27.5656 294.229 26.151C293.443 24.714 293.05 23.0413 293.05 21.1327C293.05 19.2242 293.454 17.5626 294.262 16.1481C295.071 14.7111 296.171 13.6109 297.563 12.8474C298.955 12.0616 300.516 11.6686 302.244 11.6686C303.973 11.6686 305.534 12.0616 306.926 12.8474C308.341 13.6109 309.441 14.7111 310.227 16.1481C311.035 17.5626 311.439 19.2242 311.439 21.1327C311.439 23.0188 311.035 24.6803 310.227 26.1174C309.418 27.5544 308.307 28.6658 306.892 29.4517C305.478 30.2151 303.906 30.5968 302.177 30.5968ZM302.177 28.5423C303.39 28.5423 304.512 28.2729 305.545 27.734C306.578 27.1727 307.409 26.3419 308.037 25.2417C308.689 24.119 309.014 22.7494 309.014 21.1327C309.014 19.5161 308.7 18.1577 308.071 17.0574C307.442 15.9348 306.612 15.104 305.579 14.5651C304.546 14.0038 303.423 13.7231 302.211 13.7231C300.998 13.7231 299.876 14.0038 298.843 14.5651C297.81 15.104 296.979 15.9348 296.35 17.0574C295.744 18.1577 295.441 19.5161 295.441 21.1327C295.441 22.7494 295.744 24.119 296.35 25.2417C296.979 26.3419 297.799 27.1727 298.809 27.734C299.842 28.2729 300.965 28.5423 302.177 28.5423Z" fill="#D1D1E9"/>
<path d="M83.9544 11.7464L78.4982 30.4051H73.4126L70.0109 17.371L66.6092 30.4051H61.4898L56 11.7464H60.7826L64.0832 25.9594L67.6533 11.7464H72.6379L76.1406 25.9257L79.4413 11.7464H83.9544Z" fill="#3917DB"/>
<path d="M103.851 20.6716C103.851 21.3452 103.806 21.9514 103.716 22.4903H90.0757C90.188 23.8375 90.6595 24.8928 91.4903 25.6562C92.3211 26.4197 93.3427 26.8014 94.5552 26.8014C96.3065 26.8014 97.5527 26.0492 98.2937 24.5448H103.379C102.84 26.3411 101.808 27.823 100.281 28.9906C98.754 30.1357 96.8791 30.7082 94.6562 30.7082C92.86 30.7082 91.2433 30.3153 89.8063 29.5294C88.3917 28.7211 87.2803 27.5872 86.472 26.1278C85.6861 24.6683 85.2932 22.9843 85.2932 21.0758C85.2932 19.1448 85.6861 17.4496 86.472 15.9901C87.2578 14.5306 88.3581 13.4079 89.7726 12.6221C91.1872 11.8362 92.815 11.4433 94.6562 11.4433C96.43 11.4433 98.013 11.825 99.4051 12.5884C100.82 13.3518 101.909 14.4408 102.672 15.8554C103.458 17.2475 103.851 18.8529 103.851 20.6716ZM98.9673 19.3244C98.9448 18.1119 98.507 17.1464 97.6537 16.4279C96.8005 15.687 95.7564 15.3165 94.5215 15.3165C93.3539 15.3165 92.366 15.6757 91.5577 16.3942C90.7718 17.0903 90.289 18.067 90.1094 19.3244H98.9673Z" fill="#3917DB"/>
<path d="M112.008 14.4745C112.614 13.5763 113.445 12.8466 114.5 12.2853C115.578 11.7239 116.802 11.4433 118.171 11.4433C119.765 11.4433 121.202 11.8362 122.482 12.6221C123.785 13.4079 124.806 14.5306 125.547 15.9901C126.311 17.4271 126.692 19.0999 126.692 21.0084C126.692 22.9169 126.311 24.6122 125.547 26.0941C124.806 27.5536 123.785 28.6874 122.482 29.4958C121.202 30.3041 119.765 30.7082 118.171 30.7082C116.779 30.7082 115.555 30.4388 114.5 29.8999C113.467 29.3386 112.636 28.6201 112.008 27.7444V30.4051H107.293V5.48192H112.008V14.4745ZM121.876 21.0084C121.876 19.8857 121.64 18.9202 121.169 18.1119C120.72 17.2811 120.113 16.6525 119.35 16.2258C118.609 15.7992 117.801 15.5859 116.925 15.5859C116.072 15.5859 115.263 15.8105 114.5 16.2595C113.759 16.6861 113.153 17.3148 112.681 18.1456C112.232 18.9764 112.008 19.9531 112.008 21.0758C112.008 22.1984 112.232 23.1751 112.681 24.0059C113.153 24.8367 113.759 25.4766 114.5 25.9257C115.263 26.3523 116.072 26.5656 116.925 26.5656C117.801 26.5656 118.609 26.3411 119.35 25.892C120.113 25.4429 120.72 24.803 121.169 23.9722C121.64 23.1415 121.876 22.1535 121.876 21.0084Z" fill="#3917DB"/>
<path d="M137.259 30.7082C135.732 30.7082 134.362 30.4388 133.15 29.8999C131.937 29.3386 130.972 28.5864 130.253 27.6434C129.557 26.7003 129.176 25.6562 129.108 24.5111H133.857C133.947 25.2296 134.295 25.8246 134.901 26.2962C135.53 26.7677 136.305 27.0034 137.225 27.0034C138.123 27.0034 138.819 26.8238 139.313 26.4646C139.83 26.1053 140.088 25.645 140.088 25.0837C140.088 24.4774 139.774 24.0284 139.145 23.7365C138.539 23.4221 137.562 23.0853 136.215 22.7261C134.823 22.3893 133.677 22.0413 132.779 21.682C131.904 21.3228 131.14 20.7726 130.489 20.0317C129.86 19.2907 129.546 18.2915 129.546 17.0342C129.546 16.0013 129.838 15.0583 130.422 14.205C131.028 13.3518 131.881 12.6782 132.981 12.1842C134.104 11.6903 135.418 11.4433 136.922 11.4433C139.145 11.4433 140.919 12.0046 142.243 13.1273C143.568 14.2275 144.298 15.7206 144.433 17.6067H139.92C139.852 16.8658 139.538 16.282 138.976 15.8554C138.438 15.4063 137.708 15.1818 136.787 15.1818C135.934 15.1818 135.272 15.3389 134.8 15.6533C134.351 15.9676 134.127 16.4055 134.127 16.9668C134.127 17.5955 134.441 18.0782 135.07 18.415C135.698 18.7294 136.675 19.055 138 19.3918C139.347 19.7286 140.458 20.0766 141.334 20.4358C142.21 20.7951 142.962 21.3564 143.591 22.1198C144.242 22.8608 144.579 23.8488 144.601 25.0837C144.601 26.1614 144.298 27.1269 143.692 27.9802C143.108 28.8334 142.255 29.507 141.132 30.001C140.032 30.4725 138.741 30.7082 137.259 30.7082Z" fill="#3917DB"/>
<path d="M158.811 11.477C161.034 11.477 162.83 12.1842 164.2 13.5988C165.57 14.9909 166.255 16.9443 166.255 19.4591V30.4051H161.539V20.099C161.539 18.6171 161.169 17.4832 160.428 16.6974C159.687 15.889 158.677 15.4849 157.397 15.4849C156.095 15.4849 155.062 15.889 154.298 16.6974C153.557 17.4832 153.187 18.6171 153.187 20.099V30.4051H148.472V11.7464H153.187V14.0703C153.815 13.262 154.613 12.6333 155.578 12.1842C156.566 11.7127 157.644 11.477 158.811 11.477Z" fill="#3917DB"/>
<path d="M173.13 9.52352C172.299 9.52352 171.603 9.26531 171.042 8.74888C170.503 8.21 170.233 7.54763 170.233 6.76176C170.233 5.97589 170.503 5.32475 171.042 4.80832C171.603 4.26944 172.299 4 173.13 4C173.961 4 174.645 4.26944 175.184 4.80832C175.746 5.32475 176.026 5.97589 176.026 6.76176C176.026 7.54763 175.746 8.21 175.184 8.74888C174.645 9.26531 173.961 9.52352 173.13 9.52352ZM175.454 11.7464V30.4051H170.739V11.7464H175.454Z" fill="#3917DB"/>
<path d="M184.828 14.4408C185.434 13.5876 186.265 12.8803 187.32 12.319C188.398 11.7352 189.621 11.4433 190.991 11.4433C192.585 11.4433 194.022 11.8362 195.302 12.6221C196.604 13.4079 197.626 14.5306 198.367 15.9901C199.13 17.4271 199.512 19.0999 199.512 21.0084C199.512 22.9169 199.13 24.6122 198.367 26.0941C197.626 27.5536 196.604 28.6874 195.302 29.4958C194.022 30.3041 192.585 30.7082 190.991 30.7082C189.621 30.7082 188.409 30.4276 187.354 29.8662C186.321 29.3049 185.479 28.5976 184.828 27.7444V39.2966H180.112V11.7464H184.828V14.4408ZM194.696 21.0084C194.696 19.8857 194.46 18.9202 193.989 18.1119C193.539 17.2811 192.933 16.6525 192.17 16.2258C191.429 15.7992 190.621 15.5859 189.745 15.5859C188.892 15.5859 188.083 15.8105 187.32 16.2595C186.579 16.6861 185.973 17.3148 185.501 18.1456C185.052 18.9764 184.828 19.9531 184.828 21.0758C184.828 22.1984 185.052 23.1751 185.501 24.0059C185.973 24.8367 186.579 25.4766 187.32 25.9257C188.083 26.3523 188.892 26.5656 189.745 26.5656C190.621 26.5656 191.429 26.3411 192.17 25.892C192.933 25.4429 193.539 24.803 193.989 23.9722C194.46 23.1415 194.696 22.1535 194.696 21.0084Z" fill="#3917DB"/>
<path d="M207.654 14.4408C208.26 13.5876 209.091 12.8803 210.146 12.319C211.224 11.7352 212.447 11.4433 213.817 11.4433C215.411 11.4433 216.848 11.8362 218.128 12.6221C219.43 13.4079 220.452 14.5306 221.193 15.9901C221.956 17.4271 222.338 19.0999 222.338 21.0084C222.338 22.9169 221.956 24.6122 221.193 26.0941C220.452 27.5536 219.43 28.6874 218.128 29.4958C216.848 30.3041 215.411 30.7082 213.817 30.7082C212.447 30.7082 211.235 30.4276 210.18 29.8662C209.147 29.3049 208.305 28.5976 207.654 27.7444V39.2966H202.938V11.7464H207.654V14.4408ZM217.522 21.0084C217.522 19.8857 217.286 18.9202 216.815 18.1119C216.366 17.2811 215.759 16.6525 214.996 16.2258C214.255 15.7992 213.447 15.5859 212.571 15.5859C211.718 15.5859 210.909 15.8105 210.146 16.2595C209.405 16.6861 208.799 17.3148 208.327 18.1456C207.878 18.9764 207.654 19.9531 207.654 21.0758C207.654 22.1984 207.878 23.1751 208.327 24.0059C208.799 24.8367 209.405 25.4766 210.146 25.9257C210.909 26.3523 211.718 26.5656 212.571 26.5656C213.447 26.5656 214.255 26.3411 214.996 25.892C215.759 25.4429 216.366 24.803 216.815 23.9722C217.286 23.1415 217.522 22.1535 217.522 21.0084Z" fill="#3917DB"/>
<path d="M243.11 20.6716C243.11 21.3452 243.065 21.9514 242.975 22.4903H229.335C229.447 23.8375 229.918 24.8928 230.749 25.6562C231.58 26.4197 232.602 26.8014 233.814 26.8014C235.565 26.8014 236.812 26.0492 237.553 24.5448H242.638C242.099 26.3411 241.066 27.823 239.54 28.9906C238.013 30.1357 236.138 30.7082 233.915 30.7082C232.119 30.7082 230.502 30.3153 229.065 29.5294C227.651 28.7211 226.539 27.5872 225.731 26.1278C224.945 24.6683 224.552 22.9843 224.552 21.0758C224.552 19.1448 224.945 17.4496 225.731 15.9901C226.517 14.5306 227.617 13.4079 229.032 12.6221C230.446 11.8362 232.074 11.4433 233.915 11.4433C235.689 11.4433 237.272 11.825 238.664 12.5884C240.079 13.3518 241.168 14.4408 241.931 15.8554C242.717 17.2475 243.11 18.8529 243.11 20.6716ZM238.226 19.3244C238.204 18.1119 237.766 17.1464 236.913 16.4279C236.059 15.687 235.015 15.3165 233.78 15.3165C232.613 15.3165 231.625 15.6757 230.817 16.3942C230.031 17.0903 229.548 18.067 229.368 19.3244H238.226Z" fill="#3917DB"/>
<path d="M252.041 15.6196V24.6458C252.041 25.2745 252.187 25.7348 252.479 26.0267C252.793 26.2962 253.31 26.4309 254.028 26.4309H256.218V30.4051H253.254C249.28 30.4051 247.292 28.4741 247.292 24.6122V15.6196H245.07V11.7464H247.292V7.13224H252.041V11.7464H256.218V15.6196H252.041Z" fill="#3917DB"/>
<path d="M266.749 30.7082C265.222 30.7082 263.853 30.4388 262.64 29.8999C261.428 29.3386 260.462 28.5864 259.744 27.6434C259.048 26.7003 258.666 25.6562 258.599 24.5111H263.348C263.437 25.2296 263.785 25.8246 264.392 26.2962C265.02 26.7677 265.795 27.0034 266.715 27.0034C267.614 27.0034 268.31 26.8238 268.804 26.4646C269.32 26.1053 269.578 25.645 269.578 25.0837C269.578 24.4774 269.264 24.0284 268.635 23.7365C268.029 23.4221 267.052 23.0853 265.705 22.7261C264.313 22.3893 263.168 22.0413 262.27 21.682C261.394 21.3228 260.631 20.7726 259.979 20.0317C259.351 19.2907 259.036 18.2915 259.036 17.0342C259.036 16.0013 259.328 15.0583 259.912 14.205C260.518 13.3518 261.372 12.6782 262.472 12.1842C263.594 11.6903 264.908 11.4433 266.412 11.4433C268.635 11.4433 270.409 12.0046 271.734 13.1273C273.059 14.2275 273.788 15.7206 273.923 17.6067H269.41C269.343 16.8658 269.028 16.282 268.467 15.8554C267.928 15.4063 267.198 15.1818 266.278 15.1818C265.424 15.1818 264.762 15.3389 264.291 15.6533C263.841 15.9676 263.617 16.4055 263.617 16.9668C263.617 17.5955 263.931 18.0782 264.56 18.415C265.189 18.7294 266.165 19.055 267.49 19.3918C268.837 19.7286 269.949 20.0766 270.824 20.4358C271.7 20.7951 272.452 21.3564 273.081 22.1198C273.732 22.8608 274.069 23.8488 274.091 25.0837C274.091 26.1614 273.788 27.1269 273.182 27.9802C272.598 28.8334 271.745 29.507 270.622 30.001C269.522 30.4725 268.231 30.7082 266.749 30.7082Z" fill="#3917DB"/>
<g filter="url(#filter0_d)">
<path fill-rule="evenodd" clip-rule="evenodd" d="M6.57234 20.0744L16.878 10.5615L14.3668 7.84106L2 19.2565L2.75498 20.0744L2 20.8923L14.3668 32.3078L16.878 29.5873L6.57234 20.0744Z" fill="#3917DB"/>
</g>
<g filter="url(#filter1_d)">
<path fill-rule="evenodd" clip-rule="evenodd" d="M46.2094 20.0744L35.9038 10.5615L38.415 7.84106L50.7818 19.2565L50.0268 20.0744L50.7818 20.8923L38.415 32.3078L35.9038 29.5873L46.2094 20.0744Z" fill="#3917DB"/>
</g>
<g filter="url(#filter2_d)">
<line x1="19.8933" y1="35.6177" x2="32.2601" y2="1.3713" stroke="#E45858" stroke-width="3.70232"/>
</g>
<path d="M321.524 13.6274H318.623L318.159 15H316.177L318.989 7.22934H321.18L323.992 15H321.989L321.524 13.6274ZM321.037 12.1663L320.074 9.32144L319.122 12.1663H321.037ZM326.741 13.5389H329.22V15H324.848V7.22934H326.741V13.5389ZM336.045 9.73101C336.045 10.1812 335.942 10.5944 335.735 10.9708C335.528 11.3397 335.211 11.6386 334.783 11.8674C334.355 12.0961 333.824 12.2105 333.189 12.2105H332.016V15H330.123V7.22934H333.189C333.809 7.22934 334.333 7.33634 334.761 7.55035C335.189 7.76436 335.51 8.05954 335.724 8.43589C335.938 8.81225 336.045 9.24395 336.045 9.73101ZM333.045 10.7051C333.407 10.7051 333.676 10.6202 333.853 10.4505C334.03 10.2808 334.119 10.0409 334.119 9.73101C334.119 9.42106 334.03 9.18123 333.853 9.0115C333.676 8.84177 333.407 8.75691 333.045 8.75691H332.016V10.7051H333.045ZM343.761 7.22934V15H341.868V11.801H338.923V15H337.03V7.22934H338.923V10.2734H341.868V7.22934H343.761ZM349.964 13.6274H347.064L346.599 15H344.618L347.43 7.22934H349.621L352.433 15H350.429L349.964 13.6274ZM349.477 12.1663L348.514 9.32144L347.562 12.1663H349.477Z" fill="#2B2C34"/>
<defs>
<filter id="filter0_d" x="0.765895" y="7.84106" width="16.1121" height="28.169" filterUnits="userSpaceOnUse" color-interpolation-filters="sRGB">
<feFlood flood-opacity="0" result="BackgroundImageFix"/>
<feColorMatrix in="SourceAlpha" type="matrix" values="0 0 0 0 0 0 0 0 0 0 0 0 0 0 0 0 0 0 127 0"/>
<feOffset dx="-1.23411" dy="3.70232"/>
<feColorMatrix type="matrix" values="0 0 0 0 0.819608 0 0 0 0 0.819608 0 0 0 0 0.913725 0 0 0 1 0"/>
<feBlend mode="normal" in2="BackgroundImageFix" result="effect1_dropShadow"/>
<feBlend mode="normal" in="SourceGraphic" in2="effect1_dropShadow" result="shape"/>
</filter>
<filter id="filter1_d" x="34.6697" y="7.84106" width="16.1121" height="28.169" filterUnits="userSpaceOnUse" color-interpolation-filters="sRGB">
<feFlood flood-opacity="0" result="BackgroundImageFix"/>
<feColorMatrix in="SourceAlpha" type="matrix" values="0 0 0 0 0 0 0 0 0 0 0 0 0 0 0 0 0 0 127 0"/>
<feOffset dx="-1.23411" dy="3.70232"/>
<feColorMatrix type="matrix" values="0 0 0 0 0.819608 0 0 0 0 0.819608 0 0 0 0 0.913725 0 0 0 1 0"/>
<feBlend mode="normal" in2="BackgroundImageFix" result="effect1_dropShadow"/>
<feBlend mode="normal" in="SourceGraphic" in2="effect1_dropShadow" result="shape"/>
</filter>
<filter id="filter2_d" x="18.1522" y="0.742554" width="17.0831" height="40.4403" filterUnits="userSpaceOnUse" color-interpolation-filters="sRGB">
<feFlood flood-opacity="0" result="BackgroundImageFix"/>
<feColorMatrix in="SourceAlpha" type="matrix" values="0 0 0 0 0 0 0 0 0 0 0 0 0 0 0 0 0 0 127 0"/>
<feOffset dx="1.23411" dy="4.93642"/>
<feColorMatrix type="matrix" values="0 0 0 0 0.819608 0 0 0 0 0.819608 0 0 0 0 0.913725 0 0 0 1 0"/>
<feBlend mode="normal" in2="BackgroundImageFix" result="effect1_dropShadow"/>
<feBlend mode="normal" in="SourceGraphic" in2="effect1_dropShadow" result="shape"/>
</filter>
</defs>
</svg>
