<svg width="16" height="15" viewBox="0 0 16 15" fill="none" xmlns="http://www.w3.org/2000/svg">
<path d="M5.026 14.6874C11.064 14.6874 14.367 9.16984 14.367 4.39341C14.367 4.23901 14.367 4.08241 14.361 3.92801C15.0041 3.41462 15.5591 2.77901 16 2.05096C15.3993 2.34305 14.7628 2.53556 14.111 2.62224C14.7975 2.16967 15.3117 1.4576 15.558 0.618365C14.913 1.03979 14.207 1.33563 13.471 1.49292C12.9762 0.911749 12.3214 0.526738 11.6081 0.397529C10.8948 0.268319 10.1627 0.402121 9.52534 0.778209C8.88796 1.1543 8.38081 1.75168 8.08245 2.47783C7.78409 3.20398 7.71118 4.01837 7.875 4.79485C6.56974 4.72267 5.29282 4.34871 4.12704 3.69723C2.96127 3.04575 1.93268 2.1313 1.108 1.01318C0.68934 1.81063 0.561574 2.75392 0.750646 3.65149C0.939718 4.54906 1.43145 5.33362 2.126 5.84586C1.60554 5.82636 1.09652 5.67223 0.64 5.3959V5.44552C0.640897 6.28091 0.903307 7.09033 1.38287 7.73697C1.86244 8.38362 2.52975 8.82782 3.272 8.99448C2.99026 9.08008 2.69923 9.12275 2.407 9.12131C2.20098 9.122 1.99538 9.10095 1.793 9.05845C2.00279 9.77757 2.41127 10.4063 2.96125 10.8566C3.51122 11.3069 4.17513 11.5562 4.86 11.5696C3.69656 12.5774 2.2594 13.124 0.78 13.1213C0.519321 13.1226 0.258823 13.106 0 13.0717C1.50151 14.1274 3.2453 14.688 5.026 14.6874Z" fill="#3917DB"/>
</svg>
